<svg width="16" height="16" viewBox="0 0 16 16" fill="none" xmlns="http://www.w3.org/2000/svg">
<path d="M11.2879 7.355C11.29 7.83988 11.176 8.31821 10.9554 8.75C10.0904 9.06982 9.17245 9.22253 8.25043 9.2C7.32078 9.22689 6.39468 9.0741 5.52293 8.75C5.30351 8.32046 5.18953 7.84484 5.19044 7.3625V7.275C5.21316 6.48154 5.54433 5.72819 6.1136 5.17499C6.68288 4.62179 7.44539 4.31232 8.23919 4.31232C9.03298 4.31232 9.79549 4.62179 10.3648 5.17499C10.934 5.72819 11.2652 6.48154 11.2879 7.275V7.355Z" fill="#E1BE79"/>
<path d="M2.22461 8.86751C2.22461 9.15215 2.38019 9.43401 2.68247 9.69698C2.98476 9.95995 3.42782 10.1989 3.98636 10.4002C4.54491 10.6014 5.208 10.7611 5.93777 10.87C6.66754 10.9789 7.44971 11.035 8.23961 11.035C9.02951 11.035 9.81168 10.9789 10.5415 10.87C11.2712 10.7611 11.9343 10.6014 12.4929 10.4002C13.0514 10.1989 13.4945 9.95995 13.7967 9.69698C14.099 9.43401 14.2546 9.15215 14.2546 8.86751C14.2546 8.58287 14.099 8.30102 13.7967 8.03805C13.4945 7.77507 13.0514 7.53613 12.4929 7.33486C11.9343 7.13359 11.2712 6.97393 10.5415 6.865C9.81168 6.75608 9.02951 6.70001 8.23961 6.70001C7.44971 6.70001 6.66754 6.75608 5.93777 6.865C5.208 6.97393 4.54491 7.13359 3.98636 7.33486C3.42782 7.53613 2.98476 7.77507 2.68247 8.03805C2.38019 8.30102 2.22461 8.58287 2.22461 8.86751Z" fill="#E1BE79"/>
<path d="M11.2875 7.33002V7.35502C11.2875 7.85502 11.2875 8.58252 10.7475 8.83752C10.0125 9.19502 9.0375 9.20002 8.2475 9.20002C7.48857 9.20982 6.73202 9.11305 6 8.91252C5.83743 8.86596 5.68932 8.77893 5.56952 8.65957C5.44973 8.54021 5.36216 8.39242 5.315 8.23002C5.23053 7.94602 5.18759 7.65131 5.1875 7.35502V7.41502C5.805 7.78752 6.9375 7.95752 8.2375 7.95752C9.5375 7.95752 10.67 7.70502 11.2875 7.33002Z" fill="#CF1000"/>
<path d="M5.58031 9.26502H5.51281C5.28226 9.20051 5.07259 9.07682 4.90462 8.90622C4.73665 8.73562 4.61623 8.52405 4.55531 8.29252C4.48234 8.01593 4.44537 7.73108 4.44531 7.44502V7.34752C4.45974 6.86791 4.57915 6.39729 4.79511 5.96882C5.01108 5.54034 5.31836 5.16441 5.69531 4.86752C5.71899 4.83881 5.74877 4.81575 5.7825 4.80002C5.81622 4.78428 5.85303 4.77628 5.89025 4.77658C5.92746 4.77689 5.96413 4.7855 5.99759 4.80178C6.03105 4.81807 6.06046 4.84162 6.08366 4.87071C6.10686 4.89981 6.12327 4.93372 6.1317 4.96996C6.14012 5.00621 6.14035 5.04388 6.13237 5.08023C6.12438 5.11657 6.10838 5.15068 6.08553 5.18006C6.06269 5.20943 6.03357 5.23333 6.00031 5.25002C5.68116 5.50272 5.42145 5.82248 5.23957 6.18667C5.05769 6.55086 4.95809 6.95057 4.94781 7.35752V7.41502C4.94522 7.66802 4.97632 7.92024 5.04031 8.16502C5.07956 8.31277 5.15672 8.44769 5.26415 8.55644C5.37158 8.66519 5.50556 8.74398 5.65281 8.78502C5.71636 8.80309 5.77018 8.84557 5.8025 8.90319C5.83482 8.96081 5.84302 9.02888 5.82531 9.09252C5.80859 9.14389 5.77568 9.18845 5.73152 9.21955C5.68735 9.25064 5.6343 9.2666 5.58031 9.26502ZM7.75031 9.53252C7.37104 9.53271 6.99208 9.511 6.61531 9.46752L6.45781 9.44752L6.36281 9.43252L6.20781 9.40752C6.17498 9.40211 6.14354 9.39028 6.11528 9.37271C6.08702 9.35514 6.0625 9.33218 6.04312 9.30513C6.02373 9.27809 6.00987 9.24749 6.00231 9.21509C5.99475 9.18268 5.99365 9.1491 5.99906 9.11627C6.00448 9.08344 6.01631 9.052 6.03388 9.02374C6.05145 8.99548 6.07441 8.97096 6.10145 8.95158C6.1285 8.9322 6.1591 8.91833 6.1915 8.91077C6.22391 8.90321 6.25748 8.90211 6.29031 8.90752L6.43531 8.93002L6.52531 8.94252L6.67281 8.96252C7.03049 9.00393 7.39025 9.0248 7.75031 9.02502C8.25289 9.02709 8.75473 8.9861 9.25031 8.90252L9.44781 8.87002C9.72371 8.84456 9.99333 8.77272 10.2453 8.65752C10.5653 8.48002 10.5628 7.88752 10.5628 7.49502V7.35002C10.5551 7.07901 10.5088 6.81048 10.4253 6.55252C10.4053 6.49752 10.3878 6.44252 10.3653 6.38752C10.3488 6.32803 10.355 6.26454 10.3825 6.20929C10.4101 6.15404 10.4571 6.11094 10.5145 6.08828C10.5719 6.06562 10.6357 6.06501 10.6935 6.08656C10.7514 6.10812 10.7992 6.15031 10.8278 6.20502C10.8528 6.26752 10.8753 6.33252 10.8978 6.39752C10.9957 6.70086 11.0504 7.01645 11.0603 7.33502V7.50002C11.0603 8.00002 11.0603 8.77502 10.4903 9.09502C10.1799 9.24693 9.84444 9.34097 9.50031 9.37252L9.31031 9.40252C8.7949 9.48967 8.27304 9.53316 7.75031 9.53252ZM10.2628 5.97002C10.2225 5.96996 10.1828 5.96015 10.1471 5.94143C10.1114 5.92271 10.0808 5.89564 10.0578 5.86252C9.80144 5.48645 9.4574 5.1784 9.05538 4.96498C8.65337 4.75156 8.20546 4.63918 7.75031 4.63752C7.56475 4.63688 7.37961 4.65531 7.19781 4.69252C7.16435 4.70303 7.12904 4.70637 7.0942 4.70234C7.05935 4.69831 7.02575 4.68698 6.99556 4.66911C6.96538 4.65124 6.9393 4.62721 6.91901 4.5986C6.89872 4.56999 6.88468 4.53742 6.8778 4.50303C6.87092 4.46863 6.87136 4.43317 6.87908 4.39896C6.8868 4.36474 6.90164 4.33253 6.92263 4.30442C6.94361 4.27632 6.97028 4.25294 7.00089 4.23582C7.0315 4.21869 7.06538 4.2082 7.10031 4.20502C7.736 4.07673 8.39542 4.13903 8.99584 4.38409C9.59626 4.62915 10.1109 5.04606 10.4753 5.58252C10.512 5.63704 10.5257 5.70379 10.5136 5.76835C10.5014 5.83291 10.4643 5.89009 10.4103 5.92752C10.3668 5.95681 10.3152 5.97168 10.2628 5.97002ZM6.39281 4.95252C6.33683 4.95219 6.28258 4.93308 6.23876 4.89825C6.19493 4.86342 6.16406 4.81489 6.15109 4.76043C6.13813 4.70597 6.14381 4.64874 6.16724 4.5979C6.19067 4.54706 6.23049 4.50555 6.28031 4.48002L6.45031 4.40252C6.51132 4.37672 6.58007 4.37618 6.64147 4.40102C6.70288 4.42586 6.75191 4.47406 6.77781 4.53502C6.80284 4.59574 6.80297 4.66387 6.77818 4.72468C6.75339 4.7855 6.70566 4.83411 6.64531 4.86002C6.59865 4.88002 6.55115 4.90252 6.50281 4.92752C6.46853 4.94413 6.4309 4.95268 6.39281 4.95252Z" fill="black"/>
<path d="M3.64504 10.7875C3.61933 10.7911 3.59325 10.7911 3.56754 10.7875C2.22004 10.335 1.47754 9.68748 1.47754 8.96248C1.47754 8.05748 2.67004 7.26748 4.66254 6.84748C4.72467 6.8399 4.78739 6.8559 4.83829 6.89233C4.8892 6.92875 4.92459 6.98294 4.93747 7.0442C4.95034 7.10545 4.93978 7.16931 4.90785 7.22315C4.87593 7.27699 4.82496 7.31689 4.76504 7.33498C3.07004 7.68998 1.97504 8.33498 1.97504 8.96248C1.97504 9.44248 2.63004 9.94748 3.72504 10.315C3.77992 10.3349 3.82611 10.3733 3.85561 10.4237C3.88511 10.474 3.89606 10.5331 3.88656 10.5907C3.87706 10.6483 3.84771 10.7008 3.8036 10.739C3.75949 10.7772 3.70339 10.7988 3.64504 10.8V10.7875ZM4.38754 11H4.28754C4.22124 10.9841 4.16397 10.9425 4.12834 10.8843C4.0927 10.8262 4.08163 10.7563 4.09754 10.69C4.11345 10.6237 4.15505 10.5664 4.21319 10.5308C4.27133 10.4951 4.34124 10.4841 4.40754 10.5H4.44504C4.50871 10.5154 4.56377 10.5553 4.59836 10.6109C4.63296 10.6665 4.64434 10.7335 4.63004 10.7975C4.61911 10.854 4.58901 10.905 4.54483 10.9419C4.50065 10.9788 4.44509 10.9993 4.38754 11ZM7.75004 11.3675C6.8452 11.3714 5.94175 11.2961 5.05004 11.1425C5.0168 11.1379 4.98482 11.1267 4.956 11.1096C4.92718 11.0924 4.90211 11.0696 4.88228 11.0426C4.86245 11.0155 4.84827 10.9847 4.84058 10.9521C4.8329 10.9194 4.83186 10.8855 4.83754 10.8525C4.84859 10.7897 4.88322 10.7335 4.93434 10.6954C4.98546 10.6573 5.0492 10.6401 5.11254 10.6475C5.98342 10.7993 6.86603 10.8738 7.75004 10.87C9.37254 10.87 10.9375 10.62 12.0425 10.205C12.0738 10.1878 12.1084 10.1775 12.144 10.1748C12.1796 10.1721 12.2154 10.1771 12.2489 10.1893C12.2824 10.2016 12.3129 10.2209 12.3383 10.246C12.3637 10.271 12.3835 10.3012 12.3963 10.3345C12.4091 10.3678 12.4146 10.4035 12.4125 10.4391C12.4103 10.4748 12.4006 10.5095 12.3839 10.5411C12.3672 10.5726 12.3439 10.6002 12.3156 10.622C12.2874 10.6438 12.2548 10.6593 12.22 10.6675C11.035 11.12 9.44754 11.3675 7.75004 11.3675ZM12.7 10.4275C12.6548 10.4274 12.6105 10.415 12.5717 10.3916C12.533 10.3683 12.5013 10.3349 12.48 10.295C12.4492 10.2363 12.443 10.1678 12.4627 10.1045C12.4824 10.0412 12.5264 9.98832 12.585 9.95748C13.18 9.64748 13.5075 9.28998 13.5075 8.95748C13.5075 8.32498 12.4125 7.68498 10.7175 7.32998C10.6576 7.31189 10.6067 7.27199 10.5747 7.21815C10.5428 7.16431 10.5322 7.10045 10.5451 7.0392C10.558 6.97794 10.5934 6.92375 10.6443 6.88732C10.6952 6.8509 10.7579 6.8349 10.82 6.84248C12.815 7.24998 14 8.04498 14 8.94998C14 9.32748 13.7925 9.88498 12.81 10.4C12.7757 10.4166 12.7382 10.426 12.7 10.4275Z" fill="black"/>
<path d="M9.82715 8.04253C9.79432 8.04663 9.761 8.04423 9.7291 8.03546C9.6972 8.02669 9.66734 8.01172 9.64122 7.9914C9.6151 7.97109 9.59324 7.94583 9.57689 7.91707C9.56053 7.88831 9.55 7.85661 9.5459 7.82378C9.5418 7.79095 9.5442 7.75763 9.55297 7.72573C9.56174 7.69383 9.57671 7.66397 9.59703 7.63785C9.61734 7.61173 9.6426 7.58987 9.67136 7.57352C9.70012 7.55716 9.73182 7.54663 9.76465 7.54253C10.0388 7.47457 10.3046 7.37647 10.5571 7.25003C10.575 7.20506 10.6055 7.16624 10.645 7.13828C10.6845 7.11033 10.7313 7.09443 10.7796 7.09253C10.846 7.09253 10.9095 7.11887 10.9564 7.16575C11.0033 7.21264 11.0296 7.27623 11.0296 7.34253V7.55503L10.9121 7.62753C10.5889 7.80944 10.2424 7.94653 9.88215 8.03503C9.86413 8.03943 9.84569 8.04194 9.82715 8.04253ZM7.74965 8.28753C6.44215 8.28753 5.24965 8.03753 4.57215 7.62753L4.45215 7.55503V7.34003C4.45695 7.28584 4.4793 7.2347 4.51579 7.19436C4.55229 7.15402 4.60096 7.12669 4.6544 7.11651C4.70783 7.10633 4.76314 7.11386 4.81191 7.13796C4.86068 7.16205 4.90026 7.2014 4.92465 7.25003C5.54465 7.58003 6.60715 7.78003 7.74215 7.78003C8.08541 7.78094 8.42845 7.76258 8.76965 7.72503L9.03965 7.69003C9.10491 7.68071 9.17121 7.69755 9.22412 7.73688C9.27703 7.77621 9.31226 7.83485 9.32215 7.90003C9.33147 7.96529 9.31463 8.03159 9.2753 8.0845C9.23597 8.13741 9.17733 8.17264 9.11215 8.18253L8.82465 8.22003C8.46776 8.26149 8.10892 8.28402 7.74965 8.28753Z" fill="black"/>
<path d="M5.92978 6.33499C5.9157 6.33732 5.90135 6.33732 5.88728 6.33499C5.84512 6.32327 5.80923 6.29552 5.78727 6.25768C5.76531 6.21984 5.75903 6.1749 5.76978 6.13249C5.90871 5.74702 6.19197 5.43059 6.55978 5.24999C6.57925 5.2403 6.60047 5.23462 6.62218 5.23328C6.64389 5.23194 6.66565 5.23498 6.68617 5.2422C6.70669 5.24943 6.72554 5.2607 6.74162 5.27535C6.7577 5.29 6.77068 5.30773 6.77978 5.32749C6.79876 5.36731 6.80127 5.41301 6.78676 5.45467C6.77225 5.49633 6.74189 5.53058 6.70228 5.54999C6.42136 5.68868 6.20277 5.9278 6.08978 6.21999C6.07902 6.25382 6.05765 6.28328 6.02883 6.304C6 6.32471 5.96527 6.33558 5.92978 6.33499Z" fill="white"/>
<path d="M5.62988 6.58999C5.62988 6.63243 5.64674 6.67312 5.67675 6.70313C5.70675 6.73314 5.74745 6.74999 5.78988 6.74999C5.83232 6.74999 5.87301 6.73314 5.90302 6.70313C5.93303 6.67312 5.94988 6.63243 5.94988 6.58999C5.94988 6.54756 5.93303 6.50686 5.90302 6.47686C5.87301 6.44685 5.83232 6.42999 5.78988 6.42999C5.74745 6.42999 5.70675 6.44685 5.67675 6.47686C5.64674 6.50686 5.62988 6.54756 5.62988 6.58999Z" fill="white"/>
<path d="M3.53298 9.71H3.50048C3.10783 9.59286 2.77557 9.32866 2.57298 8.9725C2.55393 8.93393 2.55045 8.88951 2.56327 8.84844C2.57609 8.80737 2.60421 8.77281 2.64182 8.75191C2.67943 8.73102 2.72363 8.7254 2.76527 8.73621C2.80691 8.74703 2.84279 8.77345 2.86548 8.81C3.01931 9.08294 3.27003 9.28815 3.56798 9.385C3.61104 9.39462 3.64868 9.4206 3.67294 9.45745C3.6972 9.49431 3.70618 9.53915 3.69798 9.5825C3.68936 9.6195 3.66823 9.65239 3.63817 9.67562C3.60811 9.69885 3.57096 9.711 3.53298 9.71Z" fill="#EEC98A"/>
</svg>
